<svg width="32" height="32" viewBox="0 0 32 32" fill="none" xmlns="http://www.w3.org/2000/svg">
<path d="M16.0001 19.6029L6.28566 29.3173L2.68286 25.7145L12.3973 16.0001L2.68286 6.28566L6.28566 2.68286L16.0001 12.3973L25.7145 2.68286L29.3173 6.28566L19.6029 16.0001L29.3173 25.7145L25.7145 29.3173L16.0001 19.6029Z" fill="#F78F8F"/>
<path d="M6.28562 2.96562L15.7168 12.3968L16 12.68L16.2828 12.3972L25.7144 2.96562L29.0344 6.28562L19.6028 15.7172L19.32 16L19.6028 16.2828L29.034 25.7144L25.714 29.0344L16.2828 19.6028L16 19.32L15.7172 19.6028L6.28562 29.0344L2.96562 25.7144L12.3972 16.2828L12.68 16L12.3972 15.7172L2.96562 6.28562L6.28562 2.96562ZM25.7144 2.40002L16 12.1144L6.28562 2.40002L2.40002 6.28562L12.1144 16L2.40002 25.7144L6.28562 29.6L16 19.8856L25.7144 29.6L29.6 25.7144L19.8856 16L29.6 6.28562L25.7144 2.40002Z" fill="#C74343"/>
</svg>
